<svg width="600" height="600" viewBox="0 0 400 400" xmlns="http://www.w3.org/2000/svg">
  <defs>
    <!-- Main gradient -->
    <linearGradient id="customGradient" x1="0%" y1="0%" x2="100%" y2="0%">
      <stop offset="0%" style="stop-color:#f12711;stop-opacity:1" />
      <stop offset="100%" style="stop-color:#f5af19;stop-opacity:1" />
    </linearGradient>
    
    <!-- 3D shadow gradient -->
    <radialGradient id="shadowGradient" cx="30%" cy="30%" r="70%">
      <stop offset="0%" style="stop-color:#f5af19;stop-opacity:0.8" />
      <stop offset="100%" style="stop-color:#d10000;stop-opacity:1" />
    </radialGradient>
    
    <!-- Triangle gradient for 3D effect -->
    <linearGradient id="triangleGradient" x1="0%" y1="0%" x2="100%" y2="100%">
      <stop offset="0%" style="stop-color:#00FFFF;stop-opacity:1" />
      <stop offset="50%" style="stop-color:#00E6E6;stop-opacity:1" />
      <stop offset="100%" style="stop-color:#00CCCC;stop-opacity:1" />
    </linearGradient>
    
    <!-- Triangle shadow -->
    <linearGradient id="triangleShadow" x1="0%" y1="0%" x2="100%" y2="100%">
      <stop offset="0%" style="stop-color:#008B8B;stop-opacity:0.8" />
      <stop offset="100%" style="stop-color:#006666;stop-opacity:1" />
    </linearGradient>
    
    <!-- Highlight gradient -->
    <radialGradient id="highlightGradient" cx="35%" cy="35%" r="60%">
      <stop offset="0%" style="stop-color:#ffffff;stop-opacity:0.4" />
      <stop offset="100%" style="stop-color:#ffffff;stop-opacity:0" />
    </radialGradient>
    
    <!-- Inner glow -->
    <radialGradient id="innerGlow" cx="50%" cy="50%" r="50%">
      <stop offset="0%" style="stop-color:#ffffff;stop-opacity:0.3" />
      <stop offset="100%" style="stop-color:#ffffff;stop-opacity:0" />
    </radialGradient>
  </defs>
  
  <!-- 3D Shadow base -->
  <circle cx="208" cy="208" r="160" fill="url(#shadowGradient)" opacity="0.6"/>
  
  <!-- Main circle with gradient -->
  <circle cx="200" cy="200" r="160" fill="url(#customGradient)"/>
  
  <!-- Inner shadow for depth -->
  <circle cx="200" cy="200" r="160" fill="radial-gradient(circle at 30% 30%, transparent 60%, rgba(0,0,0,0.2) 100%)"/>
  
  <!-- Triangle shadow (for 3D depth) -->
  <polygon points="200,80 280,220 120,220" fill="url(#triangleShadow)" transform="translate(4, 4)"/>
  
  <!-- Main triangle -->
  <polygon points="200,80 280,220 120,220" fill="url(#triangleGradient)"/>
  
  <!-- Triangle highlight for 3D effect -->
  <polygon points="200,80 240,150 160,150" fill="url(#innerGlow)"/>
  
  <!-- Left edge highlight -->
  <polygon points="200,80 160,150 120,220 125,215 165,145 200,85" fill="rgba(255,255,255,0.3)"/>
  
  <!-- Top edge highlight -->
  <polygon points="200,80 200,85 275,215 280,220 200,80" fill="rgba(255,255,255,0.2)"/>
  
  <!-- Center dot -->
  <circle cx="200" cy="180" r="8" fill="#004D4D"/>
  <circle cx="200" cy="180" r="6" fill="#00FFFF"/>
  <circle cx="198" cy="178" r="2" fill="rgba(255,255,255,0.8)"/>
  
  <!-- Outer circle 3D highlight -->
  <circle cx="200" cy="200" r="160" fill="url(#highlightGradient)"/>
  
  <!-- Outer rim for 3D effect -->
  <circle cx="200" cy="200" r="160" fill="none" stroke="rgba(0,0,0,0.3)" stroke-width="4"/>
  <circle cx="197" cy="197" r="157" fill="none" stroke="rgba(255,255,255,0.4)" stroke-width="2"/>
  
  <!-- Additional inner rim -->
  <circle cx="200" cy="200" r="145" fill="none" stroke="rgba(0,0,0,0.1)" stroke-width="1"/>
</svg>